<?xml version = "1.0" encoding = "utf-8" ?>
<svg 
xmlns = "http://www.w3.org/2000/svg"
width = "552"
height = "600"
version = "1.1">
<text x="187" y="16" font-family = "monospace" font-size="16px" font-weight="bold" fill="brown">Гранулярность 100000</text>
<text x="31" y="16" font-family = "monospace" font-size="10px" font-weight="normal" fill="black">Tмкс</text>
<text x="10" y="585" font-family = "monospace" font-size="10px" font-weight="normal" fill="black">Threads</text>
<rect x="37" y="24" width="515" height="551" stroke="black" fill="white"/>
<line x1="38" y1="570" x2="40" y2="570" stroke="silver"/>
<line x1="38" y1="565" x2="40" y2="565" stroke="silver"/>
<line x1="38" y1="560" x2="40" y2="560" stroke="silver"/>
<line x1="38" y1="555" x2="40" y2="555" stroke="silver"/>
<line x1="38" y1="550" x2="42" y2="550" stroke="silver"/>
<line x1="38" y1="545" x2="40" y2="545" stroke="silver"/>
<line x1="38" y1="540" x2="40" y2="540" stroke="silver"/>
<line x1="38" y1="535" x2="40" y2="535" stroke="silver"/>
<line x1="38" y1="530" x2="40" y2="530" stroke="silver"/>
<line x1="38" y1="525" x2="551" y2="525" stroke="silver"/>
<text x="10" y="529" font-family = "monospace" font-size="10px" font-weight="normal" fill="black">1000</text>
<line x1="38" y1="520" x2="40" y2="520" stroke="silver"/>
<line x1="38" y1="515" x2="40" y2="515" stroke="silver"/>
<line x1="38" y1="510" x2="40" y2="510" stroke="silver"/>
<line x1="38" y1="505" x2="40" y2="505" stroke="silver"/>
<line x1="38" y1="500" x2="42" y2="500" stroke="silver"/>
<line x1="38" y1="495" x2="40" y2="495" stroke="silver"/>
<line x1="38" y1="490" x2="40" y2="490" stroke="silver"/>
<line x1="38" y1="485" x2="40" y2="485" stroke="silver"/>
<line x1="38" y1="480" x2="40" y2="480" stroke="silver"/>
<line x1="38" y1="475" x2="551" y2="475" stroke="silver"/>
<text x="10" y="479" font-family = "monospace" font-size="10px" font-weight="normal" fill="black">2000</text>
<line x1="38" y1="470" x2="40" y2="470" stroke="silver"/>
<line x1="38" y1="465" x2="40" y2="465" stroke="silver"/>
<line x1="38" y1="460" x2="40" y2="460" stroke="silver"/>
<line x1="38" y1="455" x2="40" y2="455" stroke="silver"/>
<line x1="38" y1="450" x2="42" y2="450" stroke="silver"/>
<line x1="38" y1="445" x2="40" y2="445" stroke="silver"/>
<line x1="38" y1="440" x2="40" y2="440" stroke="silver"/>
<line x1="38" y1="435" x2="40" y2="435" stroke="silver"/>
<line x1="38" y1="430" x2="40" y2="430" stroke="silver"/>
<line x1="38" y1="425" x2="551" y2="425" stroke="silver"/>
<text x="10" y="429" font-family = "monospace" font-size="10px" font-weight="normal" fill="black">3000</text>
<line x1="38" y1="420" x2="40" y2="420" stroke="silver"/>
<line x1="38" y1="415" x2="40" y2="415" stroke="silver"/>
<line x1="38" y1="410" x2="40" y2="410" stroke="silver"/>
<line x1="38" y1="405" x2="40" y2="405" stroke="silver"/>
<line x1="38" y1="400" x2="42" y2="400" stroke="silver"/>
<line x1="38" y1="395" x2="40" y2="395" stroke="silver"/>
<line x1="38" y1="390" x2="40" y2="390" stroke="silver"/>
<line x1="38" y1="385" x2="40" y2="385" stroke="silver"/>
<line x1="38" y1="380" x2="40" y2="380" stroke="silver"/>
<line x1="38" y1="375" x2="551" y2="375" stroke="silver"/>
<text x="10" y="379" font-family = "monospace" font-size="10px" font-weight="normal" fill="black">4000</text>
<line x1="38" y1="370" x2="40" y2="370" stroke="silver"/>
<line x1="38" y1="365" x2="40" y2="365" stroke="silver"/>
<line x1="38" y1="360" x2="40" y2="360" stroke="silver"/>
<line x1="38" y1="355" x2="40" y2="355" stroke="silver"/>
<line x1="38" y1="350" x2="42" y2="350" stroke="silver"/>
<line x1="38" y1="345" x2="40" y2="345" stroke="silver"/>
<line x1="38" y1="340" x2="40" y2="340" stroke="silver"/>
<line x1="38" y1="335" x2="40" y2="335" stroke="silver"/>
<line x1="38" y1="330" x2="40" y2="330" stroke="silver"/>
<line x1="38" y1="325" x2="551" y2="325" stroke="silver"/>
<text x="10" y="329" font-family = "monospace" font-size="10px" font-weight="normal" fill="black">5000</text>
<line x1="38" y1="320" x2="40" y2="320" stroke="silver"/>
<line x1="38" y1="315" x2="40" y2="315" stroke="silver"/>
<line x1="38" y1="310" x2="40" y2="310" stroke="silver"/>
<line x1="38" y1="305" x2="40" y2="305" stroke="silver"/>
<line x1="38" y1="300" x2="42" y2="300" stroke="silver"/>
<line x1="38" y1="295" x2="40" y2="295" stroke="silver"/>
<line x1="38" y1="290" x2="40" y2="290" stroke="silver"/>
<line x1="38" y1="285" x2="40" y2="285" stroke="silver"/>
<line x1="38" y1="280" x2="40" y2="280" stroke="silver"/>
<line x1="38" y1="275" x2="551" y2="275" stroke="silver"/>
<text x="10" y="279" font-family = "monospace" font-size="10px" font-weight="normal" fill="black">6000</text>
<line x1="38" y1="270" x2="40" y2="270" stroke="silver"/>
<line x1="38" y1="265" x2="40" y2="265" stroke="silver"/>
<line x1="38" y1="260" x2="40" y2="260" stroke="silver"/>
<line x1="38" y1="255" x2="40" y2="255" stroke="silver"/>
<line x1="38" y1="250" x2="42" y2="250" stroke="silver"/>
<line x1="38" y1="245" x2="40" y2="245" stroke="silver"/>
<line x1="38" y1="240" x2="40" y2="240" stroke="silver"/>
<line x1="38" y1="235" x2="40" y2="235" stroke="silver"/>
<line x1="38" y1="230" x2="40" y2="230" stroke="silver"/>
<line x1="38" y1="225" x2="551" y2="225" stroke="silver"/>
<text x="10" y="229" font-family = "monospace" font-size="10px" font-weight="normal" fill="black">7000</text>
<line x1="38" y1="220" x2="40" y2="220" stroke="silver"/>
<line x1="38" y1="215" x2="40" y2="215" stroke="silver"/>
<line x1="38" y1="210" x2="40" y2="210" stroke="silver"/>
<line x1="38" y1="205" x2="40" y2="205" stroke="silver"/>
<line x1="38" y1="200" x2="42" y2="200" stroke="silver"/>
<line x1="38" y1="195" x2="40" y2="195" stroke="silver"/>
<line x1="38" y1="190" x2="40" y2="190" stroke="silver"/>
<line x1="38" y1="185" x2="40" y2="185" stroke="silver"/>
<line x1="38" y1="180" x2="40" y2="180" stroke="silver"/>
<line x1="38" y1="175" x2="551" y2="175" stroke="silver"/>
<text x="10" y="179" font-family = "monospace" font-size="10px" font-weight="normal" fill="black">8000</text>
<line x1="38" y1="170" x2="40" y2="170" stroke="silver"/>
<line x1="38" y1="165" x2="40" y2="165" stroke="silver"/>
<line x1="38" y1="160" x2="40" y2="160" stroke="silver"/>
<line x1="38" y1="155" x2="40" y2="155" stroke="silver"/>
<line x1="38" y1="150" x2="42" y2="150" stroke="silver"/>
<line x1="38" y1="145" x2="40" y2="145" stroke="silver"/>
<line x1="38" y1="140" x2="40" y2="140" stroke="silver"/>
<line x1="38" y1="135" x2="40" y2="135" stroke="silver"/>
<line x1="38" y1="130" x2="40" y2="130" stroke="silver"/>
<line x1="38" y1="125" x2="551" y2="125" stroke="silver"/>
<text x="10" y="129" font-family = "monospace" font-size="10px" font-weight="normal" fill="black">9000</text>
<line x1="38" y1="120" x2="40" y2="120" stroke="silver"/>
<line x1="38" y1="115" x2="40" y2="115" stroke="silver"/>
<line x1="38" y1="110" x2="40" y2="110" stroke="silver"/>
<line x1="38" y1="105" x2="40" y2="105" stroke="silver"/>
<line x1="38" y1="100" x2="42" y2="100" stroke="silver"/>
<line x1="38" y1="95" x2="40" y2="95" stroke="silver"/>
<line x1="38" y1="90" x2="40" y2="90" stroke="silver"/>
<line x1="38" y1="85" x2="40" y2="85" stroke="silver"/>
<line x1="38" y1="80" x2="40" y2="80" stroke="silver"/>
<line x1="38" y1="75" x2="551" y2="75" stroke="silver"/>
<text x="5" y="79" font-family = "monospace" font-size="10px" font-weight="normal" fill="black">10000</text>
<line x1="38" y1="70" x2="40" y2="70" stroke="silver"/>
<line x1="38" y1="65" x2="40" y2="65" stroke="silver"/>
<line x1="38" y1="60" x2="40" y2="60" stroke="silver"/>
<line x1="38" y1="55" x2="40" y2="55" stroke="silver"/>
<line x1="38" y1="50" x2="42" y2="50" stroke="silver"/>
<line x1="38" y1="45" x2="40" y2="45" stroke="silver"/>
<line x1="38" y1="40" x2="40" y2="40" stroke="silver"/>
<line x1="38" y1="35" x2="40" y2="35" stroke="silver"/>
<line x1="38" y1="30" x2="40" y2="30" stroke="silver"/>
<text x="5" y="28" font-family = "monospace" font-size="10px" font-weight="normal" fill="black">11000</text>
<rect x="47" y="459" width="5" height="116" fill="cadetblue"/>
<rect x="47" y="446" width="4" height="13" fill="cadetblue"/>
<rect x="47" y="439" width="3" height="7" fill="cadetblue"/>
<rect x="57" y="467" width="5" height="108" fill="cadetblue"/>
<rect x="57" y="449" width="4" height="18" fill="cadetblue"/>
<rect x="57" y="428" width="3" height="21" fill="cadetblue"/>
<rect x="67" y="442" width="5" height="133" fill="cadetblue"/>
<rect x="67" y="422" width="4" height="20" fill="cadetblue"/>
<rect x="67" y="407" width="3" height="15" fill="cadetblue"/>
<rect x="77" y="420" width="5" height="155" fill="cadetblue"/>
<rect x="77" y="403" width="4" height="17" fill="cadetblue"/>
<rect x="77" y="390" width="3" height="13" fill="cadetblue"/>
<rect x="87" y="392" width="5" height="183" fill="cadetblue"/>
<rect x="87" y="363" width="4" height="29" fill="cadetblue"/>
<rect x="87" y="337" width="3" height="26" fill="cadetblue"/>
<rect x="97" y="357" width="5" height="218" fill="cadetblue"/>
<rect x="97" y="332" width="4" height="25" fill="cadetblue"/>
<rect x="97" y="313" width="3" height="19" fill="cadetblue"/>
<rect x="107" y="332" width="5" height="243" fill="cadetblue"/>
<rect x="107" y="306" width="4" height="26" fill="cadetblue"/>
<rect x="107" y="281" width="3" height="25" fill="cadetblue"/>
<rect x="117" y="297" width="5" height="278" fill="cadetblue"/>
<rect x="117" y="275" width="4" height="22" fill="cadetblue"/>
<rect x="117" y="258" width="3" height="17" fill="cadetblue"/>
<rect x="127" y="245" width="5" height="330" fill="cadetblue"/>
<rect x="127" y="197" width="4" height="48" fill="cadetblue"/>
<rect x="127" y="174" width="3" height="23" fill="cadetblue"/>
<rect x="137" y="216" width="5" height="359" fill="cadetblue"/>
<rect x="137" y="169" width="4" height="47" fill="cadetblue"/>
<rect x="137" y="140" width="3" height="29" fill="cadetblue"/>
<rect x="147" y="177" width="5" height="398" fill="cadetblue"/>
<rect x="147" y="151" width="4" height="26" fill="cadetblue"/>
<rect x="147" y="116" width="3" height="35" fill="cadetblue"/>
<rect x="157" y="123" width="5" height="452" fill="cadetblue"/>
<rect x="157" y="71" width="4" height="52" fill="cadetblue"/>
<rect x="157" y="31" width="3" height="40" fill="cadetblue"/>
<text x="89" y="585" font-family = "monospace" font-size="10px" font-weight="normal" fill="black">1..12</text>
<rect x="172" y="458" width="5" height="117" fill="brown"/>
<rect x="172" y="447" width="4" height="11" fill="brown"/>
<rect x="172" y="439" width="3" height="8" fill="brown"/>
<rect x="182" y="470" width="5" height="105" fill="brown"/>
<rect x="182" y="464" width="4" height="6" fill="brown"/>
<rect x="182" y="458" width="3" height="6" fill="brown"/>
<rect x="192" y="445" width="5" height="130" fill="brown"/>
<rect x="192" y="428" width="4" height="17" fill="brown"/>
<rect x="192" y="413" width="3" height="15" fill="brown"/>
<rect x="202" y="429" width="5" height="146" fill="brown"/>
<rect x="202" y="406" width="4" height="23" fill="brown"/>
<rect x="202" y="389" width="3" height="17" fill="brown"/>
<rect x="212" y="404" width="5" height="171" fill="brown"/>
<rect x="212" y="391" width="4" height="13" fill="brown"/>
<rect x="212" y="372" width="3" height="19" fill="brown"/>
<rect x="222" y="370" width="5" height="205" fill="brown"/>
<rect x="222" y="359" width="4" height="11" fill="brown"/>
<rect x="222" y="350" width="3" height="9" fill="brown"/>
<rect x="232" y="342" width="5" height="233" fill="brown"/>
<rect x="232" y="313" width="4" height="29" fill="brown"/>
<rect x="232" y="286" width="3" height="27" fill="brown"/>
<rect x="242" y="289" width="5" height="286" fill="brown"/>
<rect x="242" y="268" width="4" height="21" fill="brown"/>
<rect x="242" y="246" width="3" height="22" fill="brown"/>
<rect x="252" y="259" width="5" height="316" fill="brown"/>
<rect x="252" y="210" width="4" height="49" fill="brown"/>
<rect x="252" y="179" width="3" height="31" fill="brown"/>
<rect x="262" y="189" width="5" height="386" fill="brown"/>
<rect x="262" y="157" width="4" height="32" fill="brown"/>
<rect x="262" y="134" width="3" height="23" fill="brown"/>
<rect x="272" y="156" width="5" height="419" fill="brown"/>
<rect x="272" y="117" width="4" height="39" fill="brown"/>
<rect x="272" y="83" width="3" height="34" fill="brown"/>
<rect x="282" y="103" width="5" height="472" fill="brown"/>
<rect x="282" y="70" width="4" height="33" fill="brown"/>
<rect x="282" y="49" width="3" height="21" fill="brown"/>
<text x="214" y="585" font-family = "monospace" font-size="10px" font-weight="normal" fill="black">1..12</text>
<rect x="297" y="454" width="5" height="121" fill="darkorchid"/>
<rect x="297" y="447" width="4" height="7" fill="darkorchid"/>
<rect x="297" y="441" width="3" height="6" fill="darkorchid"/>
<rect x="307" y="474" width="5" height="101" fill="darkorchid"/>
<rect x="307" y="464" width="4" height="10" fill="darkorchid"/>
<rect x="307" y="451" width="3" height="13" fill="darkorchid"/>
<rect x="317" y="455" width="5" height="120" fill="darkorchid"/>
<rect x="317" y="435" width="4" height="20" fill="darkorchid"/>
<rect x="317" y="418" width="3" height="17" fill="darkorchid"/>
<rect x="327" y="433" width="5" height="142" fill="darkorchid"/>
<rect x="327" y="422" width="4" height="11" fill="darkorchid"/>
<rect x="327" y="409" width="3" height="13" fill="darkorchid"/>
<rect x="337" y="394" width="5" height="181" fill="darkorchid"/>
<rect x="337" y="369" width="4" height="25" fill="darkorchid"/>
<rect x="337" y="355" width="3" height="14" fill="darkorchid"/>
<rect x="347" y="365" width="5" height="210" fill="darkorchid"/>
<rect x="347" y="340" width="4" height="25" fill="darkorchid"/>
<rect x="347" y="319" width="3" height="21" fill="darkorchid"/>
<rect x="357" y="339" width="5" height="236" fill="darkorchid"/>
<rect x="357" y="314" width="4" height="25" fill="darkorchid"/>
<rect x="357" y="290" width="3" height="24" fill="darkorchid"/>
<rect x="367" y="267" width="5" height="308" fill="darkorchid"/>
<rect x="367" y="235" width="4" height="32" fill="darkorchid"/>
<rect x="367" y="202" width="3" height="33" fill="darkorchid"/>
<rect x="377" y="258" width="5" height="317" fill="darkorchid"/>
<rect x="377" y="231" width="4" height="27" fill="darkorchid"/>
<rect x="377" y="203" width="3" height="28" fill="darkorchid"/>
<rect x="387" y="192" width="5" height="383" fill="darkorchid"/>
<rect x="387" y="169" width="4" height="23" fill="darkorchid"/>
<rect x="387" y="152" width="3" height="17" fill="darkorchid"/>
<rect x="397" y="180" width="5" height="395" fill="darkorchid"/>
<rect x="397" y="149" width="4" height="31" fill="darkorchid"/>
<rect x="397" y="117" width="3" height="32" fill="darkorchid"/>
<rect x="407" y="101" width="5" height="474" fill="darkorchid"/>
<rect x="407" y="59" width="4" height="42" fill="darkorchid"/>
<rect x="407" y="28" width="3" height="31" fill="darkorchid"/>
<text x="339" y="585" font-family = "monospace" font-size="10px" font-weight="normal" fill="black">1..12</text>
<rect x="422" y="505" width="5" height="70" fill="red"/>
<rect x="422" y="498" width="4" height="7" fill="red"/>
<rect x="422" y="493" width="3" height="5" fill="red"/>
<rect x="432" y="539" width="5" height="36" fill="red"/>
<rect x="432" y="538" width="4" height="1" fill="red"/>
<rect x="432" y="537" width="3" height="1" fill="red"/>
<rect x="442" y="550" width="5" height="25" fill="red"/>
<rect x="442" y="544" width="4" height="6" fill="red"/>
<rect x="442" y="537" width="3" height="7" fill="red"/>
<rect x="452" y="556" width="5" height="19" fill="red"/>
<rect x="452" y="551" width="4" height="5" fill="red"/>
<rect x="452" y="547" width="3" height="4" fill="red"/>
<rect x="462" y="554" width="5" height="21" fill="red"/>
<rect x="462" y="553" width="4" height="1" fill="red"/>
<rect x="462" y="552" width="3" height="1" fill="red"/>
<rect x="472" y="556" width="5" height="19" fill="red"/>
<rect x="472" y="556" width="4" height="0" fill="red"/>
<rect x="472" y="556" width="3" height="0" fill="red"/>
<rect x="482" y="559" width="5" height="16" fill="red"/>
<rect x="482" y="559" width="4" height="0" fill="red"/>
<rect x="482" y="559" width="3" height="0" fill="red"/>
<rect x="492" y="561" width="5" height="14" fill="red"/>
<rect x="492" y="561" width="4" height="0" fill="red"/>
<rect x="492" y="561" width="3" height="0" fill="red"/>
<rect x="502" y="563" width="5" height="12" fill="red"/>
<rect x="502" y="563" width="4" height="0" fill="red"/>
<rect x="502" y="562" width="3" height="1" fill="red"/>
<rect x="512" y="564" width="5" height="11" fill="red"/>
<rect x="512" y="561" width="4" height="3" fill="red"/>
<rect x="512" y="553" width="3" height="8" fill="red"/>
<rect x="522" y="565" width="5" height="10" fill="red"/>
<rect x="522" y="565" width="4" height="0" fill="red"/>
<rect x="522" y="565" width="3" height="0" fill="red"/>
<rect x="532" y="564" width="5" height="11" fill="red"/>
<rect x="532" y="555" width="4" height="9" fill="red"/>
<rect x="532" y="554" width="3" height="1" fill="red"/>
<text x="464" y="585" font-family = "monospace" font-size="10px" font-weight="normal" fill="black">1..12</text>
<rect x="37" y="590" width="10" height="8" fill="cadetblue"/>
<text x="50" y="598" font-family = "monospace" font-size="10px" font-weight="normal" fill="black">integralThreadLock</text>
<rect x="159" y="590" width="10" height="8" fill="brown"/>
<text x="172" y="598" font-family = "monospace" font-size="10px" font-weight="normal" fill="black">integralThreadStNoLock</text>
<rect x="303" y="590" width="10" height="8" fill="darkorchid"/>
<text x="316" y="598" font-family = "monospace" font-size="10px" font-weight="normal" fill="black">integralThreadStLock</text>
<rect x="436" y="590" width="10" height="8" fill="red"/>
<text x="449" y="598" font-family = "monospace" font-size="10px" font-weight="normal" fill="black">integralOpenMP</text>
</svg>