<?xml version = "1.0" encoding = "utf-8" ?>
<svg 
xmlns = "http://www.w3.org/2000/svg"
width = "587"
height = "600"
version = "1.1">
<text x="182" y="16" font-family = "monospace" font-size="16px" font-weight="bold" fill="brown">Гранулярность 1000</text>
<text x="26" y="16" font-family = "monospace" font-size="10px" font-weight="normal" fill="black">Tмкс</text>
<text x="10" y="585" font-family = "monospace" font-size="10px" font-weight="normal" fill="black">Threads</text>
<rect x="32" y="24" width="555" height="551" stroke="black" fill="white"/>
<line x1="33" y1="573" x2="35" y2="573" stroke="silver"/>
<line x1="33" y1="570" x2="35" y2="570" stroke="silver"/>
<line x1="33" y1="567" x2="35" y2="567" stroke="silver"/>
<line x1="33" y1="564" x2="35" y2="564" stroke="silver"/>
<line x1="33" y1="562" x2="37" y2="562" stroke="silver"/>
<line x1="33" y1="559" x2="35" y2="559" stroke="silver"/>
<line x1="33" y1="556" x2="35" y2="556" stroke="silver"/>
<line x1="33" y1="553" x2="35" y2="553" stroke="silver"/>
<line x1="33" y1="551" x2="35" y2="551" stroke="silver"/>
<line x1="33" y1="548" x2="586" y2="548" stroke="silver"/>
<text x="11" y="552" font-family = "monospace" font-size="10px" font-weight="normal" fill="black">500</text>
<line x1="33" y1="545" x2="35" y2="545" stroke="silver"/>
<line x1="33" y1="542" x2="35" y2="542" stroke="silver"/>
<line x1="33" y1="540" x2="35" y2="540" stroke="silver"/>
<line x1="33" y1="537" x2="35" y2="537" stroke="silver"/>
<line x1="33" y1="534" x2="37" y2="534" stroke="silver"/>
<line x1="33" y1="531" x2="35" y2="531" stroke="silver"/>
<line x1="33" y1="529" x2="35" y2="529" stroke="silver"/>
<line x1="33" y1="526" x2="35" y2="526" stroke="silver"/>
<line x1="33" y1="523" x2="35" y2="523" stroke="silver"/>
<line x1="33" y1="520" x2="586" y2="520" stroke="silver"/>
<text x="5" y="524" font-family = "monospace" font-size="10px" font-weight="normal" fill="black">1000</text>
<line x1="33" y1="518" x2="35" y2="518" stroke="silver"/>
<line x1="33" y1="515" x2="35" y2="515" stroke="silver"/>
<line x1="33" y1="512" x2="35" y2="512" stroke="silver"/>
<line x1="33" y1="509" x2="35" y2="509" stroke="silver"/>
<line x1="33" y1="507" x2="37" y2="507" stroke="silver"/>
<line x1="33" y1="504" x2="35" y2="504" stroke="silver"/>
<line x1="33" y1="501" x2="35" y2="501" stroke="silver"/>
<line x1="33" y1="498" x2="35" y2="498" stroke="silver"/>
<line x1="33" y1="496" x2="35" y2="496" stroke="silver"/>
<line x1="33" y1="493" x2="586" y2="493" stroke="silver"/>
<text x="5" y="497" font-family = "monospace" font-size="10px" font-weight="normal" fill="black">1500</text>
<line x1="33" y1="490" x2="35" y2="490" stroke="silver"/>
<line x1="33" y1="487" x2="35" y2="487" stroke="silver"/>
<line x1="33" y1="485" x2="35" y2="485" stroke="silver"/>
<line x1="33" y1="482" x2="35" y2="482" stroke="silver"/>
<line x1="33" y1="479" x2="37" y2="479" stroke="silver"/>
<line x1="33" y1="476" x2="35" y2="476" stroke="silver"/>
<line x1="33" y1="474" x2="35" y2="474" stroke="silver"/>
<line x1="33" y1="471" x2="35" y2="471" stroke="silver"/>
<line x1="33" y1="468" x2="35" y2="468" stroke="silver"/>
<line x1="33" y1="465" x2="586" y2="465" stroke="silver"/>
<text x="5" y="469" font-family = "monospace" font-size="10px" font-weight="normal" fill="black">2000</text>
<line x1="33" y1="463" x2="35" y2="463" stroke="silver"/>
<line x1="33" y1="460" x2="35" y2="460" stroke="silver"/>
<line x1="33" y1="457" x2="35" y2="457" stroke="silver"/>
<line x1="33" y1="454" x2="35" y2="454" stroke="silver"/>
<line x1="33" y1="452" x2="37" y2="452" stroke="silver"/>
<line x1="33" y1="449" x2="35" y2="449" stroke="silver"/>
<line x1="33" y1="446" x2="35" y2="446" stroke="silver"/>
<line x1="33" y1="443" x2="35" y2="443" stroke="silver"/>
<line x1="33" y1="441" x2="35" y2="441" stroke="silver"/>
<line x1="33" y1="438" x2="586" y2="438" stroke="silver"/>
<text x="5" y="442" font-family = "monospace" font-size="10px" font-weight="normal" fill="black">2500</text>
<line x1="33" y1="435" x2="35" y2="435" stroke="silver"/>
<line x1="33" y1="432" x2="35" y2="432" stroke="silver"/>
<line x1="33" y1="429" x2="35" y2="429" stroke="silver"/>
<line x1="33" y1="427" x2="35" y2="427" stroke="silver"/>
<line x1="33" y1="424" x2="37" y2="424" stroke="silver"/>
<line x1="33" y1="421" x2="35" y2="421" stroke="silver"/>
<line x1="33" y1="418" x2="35" y2="418" stroke="silver"/>
<line x1="33" y1="416" x2="35" y2="416" stroke="silver"/>
<line x1="33" y1="413" x2="35" y2="413" stroke="silver"/>
<line x1="33" y1="410" x2="586" y2="410" stroke="silver"/>
<text x="5" y="414" font-family = "monospace" font-size="10px" font-weight="normal" fill="black">3000</text>
<line x1="33" y1="407" x2="35" y2="407" stroke="silver"/>
<line x1="33" y1="405" x2="35" y2="405" stroke="silver"/>
<line x1="33" y1="402" x2="35" y2="402" stroke="silver"/>
<line x1="33" y1="399" x2="35" y2="399" stroke="silver"/>
<line x1="33" y1="396" x2="37" y2="396" stroke="silver"/>
<line x1="33" y1="394" x2="35" y2="394" stroke="silver"/>
<line x1="33" y1="391" x2="35" y2="391" stroke="silver"/>
<line x1="33" y1="388" x2="35" y2="388" stroke="silver"/>
<line x1="33" y1="385" x2="35" y2="385" stroke="silver"/>
<line x1="33" y1="383" x2="586" y2="383" stroke="silver"/>
<text x="5" y="387" font-family = "monospace" font-size="10px" font-weight="normal" fill="black">3500</text>
<line x1="33" y1="380" x2="35" y2="380" stroke="silver"/>
<line x1="33" y1="377" x2="35" y2="377" stroke="silver"/>
<line x1="33" y1="374" x2="35" y2="374" stroke="silver"/>
<line x1="33" y1="372" x2="35" y2="372" stroke="silver"/>
<line x1="33" y1="369" x2="37" y2="369" stroke="silver"/>
<line x1="33" y1="366" x2="35" y2="366" stroke="silver"/>
<line x1="33" y1="363" x2="35" y2="363" stroke="silver"/>
<line x1="33" y1="361" x2="35" y2="361" stroke="silver"/>
<line x1="33" y1="358" x2="35" y2="358" stroke="silver"/>
<line x1="33" y1="355" x2="586" y2="355" stroke="silver"/>
<text x="5" y="359" font-family = "monospace" font-size="10px" font-weight="normal" fill="black">4000</text>
<line x1="33" y1="352" x2="35" y2="352" stroke="silver"/>
<line x1="33" y1="350" x2="35" y2="350" stroke="silver"/>
<line x1="33" y1="347" x2="35" y2="347" stroke="silver"/>
<line x1="33" y1="344" x2="35" y2="344" stroke="silver"/>
<line x1="33" y1="341" x2="37" y2="341" stroke="silver"/>
<line x1="33" y1="339" x2="35" y2="339" stroke="silver"/>
<line x1="33" y1="336" x2="35" y2="336" stroke="silver"/>
<line x1="33" y1="333" x2="35" y2="333" stroke="silver"/>
<line x1="33" y1="330" x2="35" y2="330" stroke="silver"/>
<line x1="33" y1="328" x2="586" y2="328" stroke="silver"/>
<text x="5" y="332" font-family = "monospace" font-size="10px" font-weight="normal" fill="black">4500</text>
<line x1="33" y1="325" x2="35" y2="325" stroke="silver"/>
<line x1="33" y1="322" x2="35" y2="322" stroke="silver"/>
<line x1="33" y1="319" x2="35" y2="319" stroke="silver"/>
<line x1="33" y1="317" x2="35" y2="317" stroke="silver"/>
<line x1="33" y1="314" x2="37" y2="314" stroke="silver"/>
<line x1="33" y1="311" x2="35" y2="311" stroke="silver"/>
<line x1="33" y1="308" x2="35" y2="308" stroke="silver"/>
<line x1="33" y1="306" x2="35" y2="306" stroke="silver"/>
<line x1="33" y1="303" x2="35" y2="303" stroke="silver"/>
<line x1="33" y1="300" x2="586" y2="300" stroke="silver"/>
<text x="5" y="304" font-family = "monospace" font-size="10px" font-weight="normal" fill="black">5000</text>
<line x1="33" y1="297" x2="35" y2="297" stroke="silver"/>
<line x1="33" y1="294" x2="35" y2="294" stroke="silver"/>
<line x1="33" y1="292" x2="35" y2="292" stroke="silver"/>
<line x1="33" y1="289" x2="35" y2="289" stroke="silver"/>
<line x1="33" y1="286" x2="37" y2="286" stroke="silver"/>
<line x1="33" y1="283" x2="35" y2="283" stroke="silver"/>
<line x1="33" y1="281" x2="35" y2="281" stroke="silver"/>
<line x1="33" y1="278" x2="35" y2="278" stroke="silver"/>
<line x1="33" y1="275" x2="35" y2="275" stroke="silver"/>
<line x1="33" y1="272" x2="586" y2="272" stroke="silver"/>
<text x="5" y="276" font-family = "monospace" font-size="10px" font-weight="normal" fill="black">5500</text>
<line x1="33" y1="270" x2="35" y2="270" stroke="silver"/>
<line x1="33" y1="267" x2="35" y2="267" stroke="silver"/>
<line x1="33" y1="264" x2="35" y2="264" stroke="silver"/>
<line x1="33" y1="261" x2="35" y2="261" stroke="silver"/>
<line x1="33" y1="259" x2="37" y2="259" stroke="silver"/>
<line x1="33" y1="256" x2="35" y2="256" stroke="silver"/>
<line x1="33" y1="253" x2="35" y2="253" stroke="silver"/>
<line x1="33" y1="250" x2="35" y2="250" stroke="silver"/>
<line x1="33" y1="248" x2="35" y2="248" stroke="silver"/>
<line x1="33" y1="245" x2="586" y2="245" stroke="silver"/>
<text x="5" y="249" font-family = "monospace" font-size="10px" font-weight="normal" fill="black">6000</text>
<line x1="33" y1="242" x2="35" y2="242" stroke="silver"/>
<line x1="33" y1="239" x2="35" y2="239" stroke="silver"/>
<line x1="33" y1="237" x2="35" y2="237" stroke="silver"/>
<line x1="33" y1="234" x2="35" y2="234" stroke="silver"/>
<line x1="33" y1="231" x2="37" y2="231" stroke="silver"/>
<line x1="33" y1="228" x2="35" y2="228" stroke="silver"/>
<line x1="33" y1="226" x2="35" y2="226" stroke="silver"/>
<line x1="33" y1="223" x2="35" y2="223" stroke="silver"/>
<line x1="33" y1="220" x2="35" y2="220" stroke="silver"/>
<line x1="33" y1="217" x2="586" y2="217" stroke="silver"/>
<text x="5" y="221" font-family = "monospace" font-size="10px" font-weight="normal" fill="black">6500</text>
<line x1="33" y1="215" x2="35" y2="215" stroke="silver"/>
<line x1="33" y1="212" x2="35" y2="212" stroke="silver"/>
<line x1="33" y1="209" x2="35" y2="209" stroke="silver"/>
<line x1="33" y1="206" x2="35" y2="206" stroke="silver"/>
<line x1="33" y1="204" x2="37" y2="204" stroke="silver"/>
<line x1="33" y1="201" x2="35" y2="201" stroke="silver"/>
<line x1="33" y1="198" x2="35" y2="198" stroke="silver"/>
<line x1="33" y1="195" x2="35" y2="195" stroke="silver"/>
<line x1="33" y1="193" x2="35" y2="193" stroke="silver"/>
<line x1="33" y1="190" x2="586" y2="190" stroke="silver"/>
<text x="5" y="194" font-family = "monospace" font-size="10px" font-weight="normal" fill="black">7000</text>
<line x1="33" y1="187" x2="35" y2="187" stroke="silver"/>
<line x1="33" y1="184" x2="35" y2="184" stroke="silver"/>
<line x1="33" y1="182" x2="35" y2="182" stroke="silver"/>
<line x1="33" y1="179" x2="35" y2="179" stroke="silver"/>
<line x1="33" y1="176" x2="37" y2="176" stroke="silver"/>
<line x1="33" y1="173" x2="35" y2="173" stroke="silver"/>
<line x1="33" y1="171" x2="35" y2="171" stroke="silver"/>
<line x1="33" y1="168" x2="35" y2="168" stroke="silver"/>
<line x1="33" y1="165" x2="35" y2="165" stroke="silver"/>
<line x1="33" y1="162" x2="586" y2="162" stroke="silver"/>
<text x="5" y="166" font-family = "monospace" font-size="10px" font-weight="normal" fill="black">7500</text>
<line x1="33" y1="159" x2="35" y2="159" stroke="silver"/>
<line x1="33" y1="157" x2="35" y2="157" stroke="silver"/>
<line x1="33" y1="154" x2="35" y2="154" stroke="silver"/>
<line x1="33" y1="151" x2="35" y2="151" stroke="silver"/>
<line x1="33" y1="148" x2="37" y2="148" stroke="silver"/>
<line x1="33" y1="146" x2="35" y2="146" stroke="silver"/>
<line x1="33" y1="143" x2="35" y2="143" stroke="silver"/>
<line x1="33" y1="140" x2="35" y2="140" stroke="silver"/>
<line x1="33" y1="137" x2="35" y2="137" stroke="silver"/>
<line x1="33" y1="135" x2="586" y2="135" stroke="silver"/>
<text x="5" y="139" font-family = "monospace" font-size="10px" font-weight="normal" fill="black">8000</text>
<line x1="33" y1="132" x2="35" y2="132" stroke="silver"/>
<line x1="33" y1="129" x2="35" y2="129" stroke="silver"/>
<line x1="33" y1="126" x2="35" y2="126" stroke="silver"/>
<line x1="33" y1="124" x2="35" y2="124" stroke="silver"/>
<line x1="33" y1="121" x2="37" y2="121" stroke="silver"/>
<line x1="33" y1="118" x2="35" y2="118" stroke="silver"/>
<line x1="33" y1="115" x2="35" y2="115" stroke="silver"/>
<line x1="33" y1="113" x2="35" y2="113" stroke="silver"/>
<line x1="33" y1="110" x2="35" y2="110" stroke="silver"/>
<line x1="33" y1="107" x2="586" y2="107" stroke="silver"/>
<text x="5" y="111" font-family = "monospace" font-size="10px" font-weight="normal" fill="black">8500</text>
<line x1="33" y1="104" x2="35" y2="104" stroke="silver"/>
<line x1="33" y1="102" x2="35" y2="102" stroke="silver"/>
<line x1="33" y1="99" x2="35" y2="99" stroke="silver"/>
<line x1="33" y1="96" x2="35" y2="96" stroke="silver"/>
<line x1="33" y1="93" x2="37" y2="93" stroke="silver"/>
<line x1="33" y1="91" x2="35" y2="91" stroke="silver"/>
<line x1="33" y1="88" x2="35" y2="88" stroke="silver"/>
<line x1="33" y1="85" x2="35" y2="85" stroke="silver"/>
<line x1="33" y1="82" x2="35" y2="82" stroke="silver"/>
<line x1="33" y1="80" x2="586" y2="80" stroke="silver"/>
<text x="5" y="84" font-family = "monospace" font-size="10px" font-weight="normal" fill="black">9000</text>
<line x1="33" y1="77" x2="35" y2="77" stroke="silver"/>
<line x1="33" y1="74" x2="35" y2="74" stroke="silver"/>
<line x1="33" y1="71" x2="35" y2="71" stroke="silver"/>
<line x1="33" y1="69" x2="35" y2="69" stroke="silver"/>
<line x1="33" y1="66" x2="37" y2="66" stroke="silver"/>
<line x1="33" y1="63" x2="35" y2="63" stroke="silver"/>
<line x1="33" y1="60" x2="35" y2="60" stroke="silver"/>
<line x1="33" y1="58" x2="35" y2="58" stroke="silver"/>
<line x1="33" y1="55" x2="35" y2="55" stroke="silver"/>
<line x1="33" y1="52" x2="586" y2="52" stroke="silver"/>
<text x="5" y="56" font-family = "monospace" font-size="10px" font-weight="normal" fill="black">9500</text>
<line x1="33" y1="49" x2="35" y2="49" stroke="silver"/>
<line x1="33" y1="47" x2="35" y2="47" stroke="silver"/>
<line x1="33" y1="44" x2="35" y2="44" stroke="silver"/>
<line x1="33" y1="41" x2="35" y2="41" stroke="silver"/>
<line x1="33" y1="38" x2="37" y2="38" stroke="silver"/>
<line x1="33" y1="36" x2="35" y2="36" stroke="silver"/>
<line x1="33" y1="33" x2="35" y2="33" stroke="silver"/>
<line x1="33" y1="30" x2="35" y2="30" stroke="silver"/>
<line x1="33" y1="27" x2="35" y2="27" stroke="silver"/>
<text x="0" y="28" font-family = "monospace" font-size="10px" font-weight="normal" fill="black">10000</text>
<rect x="42" y="533" width="5" height="42" fill="cadetblue"/>
<rect x="42" y="526" width="4" height="7" fill="cadetblue"/>
<rect x="42" y="521" width="3" height="5" fill="cadetblue"/>
<rect x="52" y="533" width="5" height="42" fill="brown"/>
<rect x="52" y="531" width="4" height="2" fill="brown"/>
<rect x="52" y="528" width="3" height="3" fill="brown"/>
<rect x="62" y="533" width="5" height="42" fill="darkorchid"/>
<rect x="62" y="530" width="4" height="3" fill="darkorchid"/>
<rect x="62" y="528" width="3" height="2" fill="darkorchid"/>
<rect x="72" y="575" width="5" height="0" fill="red"/>
<rect x="72" y="575" width="4" height="0" fill="red"/>
<rect x="72" y="575" width="3" height="0" fill="red"/>
<text x="55" y="585" font-family = "monospace" font-size="10px" font-weight="normal" fill="black">1</text>
<rect x="87" y="493" width="5" height="82" fill="cadetblue"/>
<rect x="87" y="483" width="4" height="10" fill="cadetblue"/>
<rect x="87" y="476" width="3" height="7" fill="cadetblue"/>
<rect x="97" y="506" width="5" height="69" fill="brown"/>
<rect x="97" y="499" width="4" height="7" fill="brown"/>
<rect x="97" y="493" width="3" height="6" fill="brown"/>
<rect x="107" y="503" width="5" height="72" fill="darkorchid"/>
<rect x="107" y="493" width="4" height="10" fill="darkorchid"/>
<rect x="107" y="482" width="3" height="11" fill="darkorchid"/>
<rect x="117" y="575" width="5" height="0" fill="red"/>
<rect x="117" y="575" width="4" height="0" fill="red"/>
<rect x="117" y="575" width="3" height="0" fill="red"/>
<text x="100" y="585" font-family = "monospace" font-size="10px" font-weight="normal" fill="black">2</text>
<rect x="132" y="456" width="5" height="119" fill="cadetblue"/>
<rect x="132" y="439" width="4" height="17" fill="cadetblue"/>
<rect x="132" y="431" width="3" height="8" fill="cadetblue"/>
<rect x="142" y="467" width="5" height="108" fill="brown"/>
<rect x="142" y="443" width="4" height="24" fill="brown"/>
<rect x="142" y="424" width="3" height="19" fill="brown"/>
<rect x="152" y="475" width="5" height="100" fill="darkorchid"/>
<rect x="152" y="469" width="4" height="6" fill="darkorchid"/>
<rect x="152" y="463" width="3" height="6" fill="darkorchid"/>
<rect x="162" y="575" width="5" height="0" fill="red"/>
<rect x="162" y="575" width="4" height="0" fill="red"/>
<rect x="162" y="575" width="3" height="0" fill="red"/>
<text x="145" y="585" font-family = "monospace" font-size="10px" font-weight="normal" fill="black">3</text>
<rect x="177" y="439" width="5" height="136" fill="cadetblue"/>
<rect x="177" y="413" width="4" height="26" fill="cadetblue"/>
<rect x="177" y="386" width="3" height="27" fill="cadetblue"/>
<rect x="187" y="439" width="5" height="136" fill="brown"/>
<rect x="187" y="412" width="4" height="27" fill="brown"/>
<rect x="187" y="388" width="3" height="24" fill="brown"/>
<rect x="197" y="435" width="5" height="140" fill="darkorchid"/>
<rect x="197" y="406" width="4" height="29" fill="darkorchid"/>
<rect x="197" y="380" width="3" height="26" fill="darkorchid"/>
<rect x="207" y="575" width="5" height="0" fill="red"/>
<rect x="207" y="575" width="4" height="0" fill="red"/>
<rect x="207" y="575" width="3" height="0" fill="red"/>
<text x="190" y="585" font-family = "monospace" font-size="10px" font-weight="normal" fill="black">4</text>
<rect x="222" y="409" width="5" height="166" fill="cadetblue"/>
<rect x="222" y="391" width="4" height="18" fill="cadetblue"/>
<rect x="222" y="375" width="3" height="16" fill="cadetblue"/>
<rect x="232" y="408" width="5" height="167" fill="brown"/>
<rect x="232" y="393" width="4" height="15" fill="brown"/>
<rect x="232" y="382" width="3" height="11" fill="brown"/>
<rect x="242" y="408" width="5" height="167" fill="darkorchid"/>
<rect x="242" y="398" width="4" height="10" fill="darkorchid"/>
<rect x="242" y="383" width="3" height="15" fill="darkorchid"/>
<rect x="252" y="575" width="5" height="0" fill="red"/>
<rect x="252" y="575" width="4" height="0" fill="red"/>
<rect x="252" y="575" width="3" height="0" fill="red"/>
<text x="235" y="585" font-family = "monospace" font-size="10px" font-weight="normal" fill="black">5</text>
<rect x="267" y="377" width="5" height="198" fill="cadetblue"/>
<rect x="267" y="368" width="4" height="9" fill="cadetblue"/>
<rect x="267" y="361" width="3" height="7" fill="cadetblue"/>
<rect x="277" y="381" width="5" height="194" fill="brown"/>
<rect x="277" y="346" width="4" height="35" fill="brown"/>
<rect x="277" y="303" width="3" height="43" fill="brown"/>
<rect x="287" y="371" width="5" height="204" fill="darkorchid"/>
<rect x="287" y="359" width="4" height="12" fill="darkorchid"/>
<rect x="287" y="342" width="3" height="17" fill="darkorchid"/>
<rect x="297" y="575" width="5" height="0" fill="red"/>
<rect x="297" y="575" width="4" height="0" fill="red"/>
<rect x="297" y="575" width="3" height="0" fill="red"/>
<text x="280" y="585" font-family = "monospace" font-size="10px" font-weight="normal" fill="black">6</text>
<rect x="312" y="331" width="5" height="244" fill="cadetblue"/>
<rect x="312" y="306" width="4" height="25" fill="cadetblue"/>
<rect x="312" y="281" width="3" height="25" fill="cadetblue"/>
<rect x="322" y="337" width="5" height="238" fill="brown"/>
<rect x="322" y="315" width="4" height="22" fill="brown"/>
<rect x="322" y="293" width="3" height="22" fill="brown"/>
<rect x="332" y="343" width="5" height="232" fill="darkorchid"/>
<rect x="332" y="325" width="4" height="18" fill="darkorchid"/>
<rect x="332" y="307" width="3" height="18" fill="darkorchid"/>
<rect x="342" y="575" width="5" height="0" fill="red"/>
<rect x="342" y="575" width="4" height="0" fill="red"/>
<rect x="342" y="575" width="3" height="0" fill="red"/>
<text x="325" y="585" font-family = "monospace" font-size="10px" font-weight="normal" fill="black">7</text>
<rect x="357" y="293" width="5" height="282" fill="cadetblue"/>
<rect x="357" y="257" width="4" height="36" fill="cadetblue"/>
<rect x="357" y="231" width="3" height="26" fill="cadetblue"/>
<rect x="367" y="292" width="5" height="283" fill="brown"/>
<rect x="367" y="243" width="4" height="49" fill="brown"/>
<rect x="367" y="215" width="3" height="28" fill="brown"/>
<rect x="377" y="288" width="5" height="287" fill="darkorchid"/>
<rect x="377" y="237" width="4" height="51" fill="darkorchid"/>
<rect x="377" y="196" width="3" height="41" fill="darkorchid"/>
<rect x="387" y="575" width="5" height="0" fill="red"/>
<rect x="387" y="575" width="4" height="0" fill="red"/>
<rect x="387" y="575" width="3" height="0" fill="red"/>
<text x="370" y="585" font-family = "monospace" font-size="10px" font-weight="normal" fill="black">8</text>
<rect x="402" y="246" width="5" height="329" fill="cadetblue"/>
<rect x="402" y="220" width="4" height="26" fill="cadetblue"/>
<rect x="402" y="196" width="3" height="24" fill="cadetblue"/>
<rect x="412" y="242" width="5" height="333" fill="brown"/>
<rect x="412" y="209" width="4" height="33" fill="brown"/>
<rect x="412" y="186" width="3" height="23" fill="brown"/>
<rect x="422" y="234" width="5" height="341" fill="darkorchid"/>
<rect x="422" y="200" width="4" height="34" fill="darkorchid"/>
<rect x="422" y="170" width="3" height="30" fill="darkorchid"/>
<rect x="432" y="575" width="5" height="0" fill="red"/>
<rect x="432" y="575" width="4" height="0" fill="red"/>
<rect x="432" y="575" width="3" height="0" fill="red"/>
<text x="415" y="585" font-family = "monospace" font-size="10px" font-weight="normal" fill="black">9</text>
<rect x="447" y="187" width="5" height="388" fill="cadetblue"/>
<rect x="447" y="149" width="4" height="38" fill="cadetblue"/>
<rect x="447" y="114" width="3" height="35" fill="cadetblue"/>
<rect x="457" y="182" width="5" height="393" fill="brown"/>
<rect x="457" y="159" width="4" height="23" fill="brown"/>
<rect x="457" y="141" width="3" height="18" fill="brown"/>
<rect x="467" y="214" width="5" height="361" fill="darkorchid"/>
<rect x="467" y="180" width="4" height="34" fill="darkorchid"/>
<rect x="467" y="157" width="3" height="23" fill="darkorchid"/>
<rect x="477" y="575" width="5" height="0" fill="red"/>
<rect x="477" y="575" width="4" height="0" fill="red"/>
<rect x="477" y="575" width="3" height="0" fill="red"/>
<text x="457" y="585" font-family = "monospace" font-size="10px" font-weight="normal" fill="black">10</text>
<rect x="492" y="143" width="5" height="432" fill="cadetblue"/>
<rect x="492" y="108" width="4" height="35" fill="cadetblue"/>
<rect x="492" y="77" width="3" height="31" fill="cadetblue"/>
<rect x="502" y="153" width="5" height="422" fill="brown"/>
<rect x="502" y="116" width="4" height="37" fill="brown"/>
<rect x="502" y="82" width="3" height="34" fill="brown"/>
<rect x="512" y="137" width="5" height="438" fill="darkorchid"/>
<rect x="512" y="106" width="4" height="31" fill="darkorchid"/>
<rect x="512" y="76" width="3" height="30" fill="darkorchid"/>
<rect x="522" y="575" width="5" height="0" fill="red"/>
<rect x="522" y="575" width="4" height="0" fill="red"/>
<rect x="522" y="575" width="3" height="0" fill="red"/>
<text x="502" y="585" font-family = "monospace" font-size="10px" font-weight="normal" fill="black">11</text>
<rect x="537" y="110" width="5" height="465" fill="cadetblue"/>
<rect x="537" y="64" width="4" height="46" fill="cadetblue"/>
<rect x="537" y="25" width="3" height="39" fill="cadetblue"/>
<rect x="547" y="109" width="5" height="466" fill="brown"/>
<rect x="547" y="72" width="4" height="37" fill="brown"/>
<rect x="547" y="40" width="3" height="32" fill="brown"/>
<rect x="557" y="101" width="5" height="474" fill="darkorchid"/>
<rect x="557" y="63" width="4" height="38" fill="darkorchid"/>
<rect x="557" y="30" width="3" height="33" fill="darkorchid"/>
<rect x="567" y="575" width="5" height="0" fill="red"/>
<rect x="567" y="575" width="4" height="0" fill="red"/>
<rect x="567" y="575" width="3" height="0" fill="red"/>
<text x="547" y="585" font-family = "monospace" font-size="10px" font-weight="normal" fill="black">12</text>
<rect x="32" y="590" width="10" height="8" fill="cadetblue"/>
<text x="45" y="598" font-family = "monospace" font-size="10px" font-weight="normal" fill="black">integralThreadLock</text>
<rect x="154" y="590" width="10" height="8" fill="brown"/>
<text x="167" y="598" font-family = "monospace" font-size="10px" font-weight="normal" fill="black">integralThreadStNoLock</text>
<rect x="298" y="590" width="10" height="8" fill="darkorchid"/>
<text x="311" y="598" font-family = "monospace" font-size="10px" font-weight="normal" fill="black">integralThreadStLock</text>
<rect x="431" y="590" width="10" height="8" fill="red"/>
<text x="444" y="598" font-family = "monospace" font-size="10px" font-weight="normal" fill="black">integralOpenMP</text>
</svg>