<?xml version = "1.0" encoding = "utf-8" ?>
<svg 
xmlns = "http://www.w3.org/2000/svg"
width = "552"
height = "600"
version = "1.1">
<text x="187" y="16" font-family = "monospace" font-size="16px" font-weight="bold" fill="brown">Гранулярность 100</text>
<text x="31" y="16" font-family = "monospace" font-size="10px" font-weight="normal" fill="black">Tмкс</text>
<text x="10" y="585" font-family = "monospace" font-size="10px" font-weight="normal" fill="black">Threads</text>
<rect x="37" y="24" width="515" height="551" stroke="black" fill="white"/>
<line x1="38" y1="570" x2="40" y2="570" stroke="silver"/>
<line x1="38" y1="565" x2="40" y2="565" stroke="silver"/>
<line x1="38" y1="560" x2="40" y2="560" stroke="silver"/>
<line x1="38" y1="555" x2="40" y2="555" stroke="silver"/>
<line x1="38" y1="550" x2="42" y2="550" stroke="silver"/>
<line x1="38" y1="545" x2="40" y2="545" stroke="silver"/>
<line x1="38" y1="540" x2="40" y2="540" stroke="silver"/>
<line x1="38" y1="535" x2="40" y2="535" stroke="silver"/>
<line x1="38" y1="530" x2="40" y2="530" stroke="silver"/>
<line x1="38" y1="525" x2="551" y2="525" stroke="silver"/>
<text x="10" y="529" font-family = "monospace" font-size="10px" font-weight="normal" fill="black">1000</text>
<line x1="38" y1="520" x2="40" y2="520" stroke="silver"/>
<line x1="38" y1="515" x2="40" y2="515" stroke="silver"/>
<line x1="38" y1="510" x2="40" y2="510" stroke="silver"/>
<line x1="38" y1="505" x2="40" y2="505" stroke="silver"/>
<line x1="38" y1="500" x2="42" y2="500" stroke="silver"/>
<line x1="38" y1="495" x2="40" y2="495" stroke="silver"/>
<line x1="38" y1="490" x2="40" y2="490" stroke="silver"/>
<line x1="38" y1="485" x2="40" y2="485" stroke="silver"/>
<line x1="38" y1="480" x2="40" y2="480" stroke="silver"/>
<line x1="38" y1="475" x2="551" y2="475" stroke="silver"/>
<text x="10" y="479" font-family = "monospace" font-size="10px" font-weight="normal" fill="black">2000</text>
<line x1="38" y1="470" x2="40" y2="470" stroke="silver"/>
<line x1="38" y1="465" x2="40" y2="465" stroke="silver"/>
<line x1="38" y1="460" x2="40" y2="460" stroke="silver"/>
<line x1="38" y1="455" x2="40" y2="455" stroke="silver"/>
<line x1="38" y1="450" x2="42" y2="450" stroke="silver"/>
<line x1="38" y1="445" x2="40" y2="445" stroke="silver"/>
<line x1="38" y1="440" x2="40" y2="440" stroke="silver"/>
<line x1="38" y1="435" x2="40" y2="435" stroke="silver"/>
<line x1="38" y1="430" x2="40" y2="430" stroke="silver"/>
<line x1="38" y1="425" x2="551" y2="425" stroke="silver"/>
<text x="10" y="429" font-family = "monospace" font-size="10px" font-weight="normal" fill="black">3000</text>
<line x1="38" y1="420" x2="40" y2="420" stroke="silver"/>
<line x1="38" y1="415" x2="40" y2="415" stroke="silver"/>
<line x1="38" y1="410" x2="40" y2="410" stroke="silver"/>
<line x1="38" y1="405" x2="40" y2="405" stroke="silver"/>
<line x1="38" y1="400" x2="42" y2="400" stroke="silver"/>
<line x1="38" y1="395" x2="40" y2="395" stroke="silver"/>
<line x1="38" y1="390" x2="40" y2="390" stroke="silver"/>
<line x1="38" y1="385" x2="40" y2="385" stroke="silver"/>
<line x1="38" y1="380" x2="40" y2="380" stroke="silver"/>
<line x1="38" y1="375" x2="551" y2="375" stroke="silver"/>
<text x="10" y="379" font-family = "monospace" font-size="10px" font-weight="normal" fill="black">4000</text>
<line x1="38" y1="370" x2="40" y2="370" stroke="silver"/>
<line x1="38" y1="365" x2="40" y2="365" stroke="silver"/>
<line x1="38" y1="360" x2="40" y2="360" stroke="silver"/>
<line x1="38" y1="355" x2="40" y2="355" stroke="silver"/>
<line x1="38" y1="350" x2="42" y2="350" stroke="silver"/>
<line x1="38" y1="345" x2="40" y2="345" stroke="silver"/>
<line x1="38" y1="340" x2="40" y2="340" stroke="silver"/>
<line x1="38" y1="335" x2="40" y2="335" stroke="silver"/>
<line x1="38" y1="330" x2="40" y2="330" stroke="silver"/>
<line x1="38" y1="325" x2="551" y2="325" stroke="silver"/>
<text x="10" y="329" font-family = "monospace" font-size="10px" font-weight="normal" fill="black">5000</text>
<line x1="38" y1="320" x2="40" y2="320" stroke="silver"/>
<line x1="38" y1="315" x2="40" y2="315" stroke="silver"/>
<line x1="38" y1="310" x2="40" y2="310" stroke="silver"/>
<line x1="38" y1="305" x2="40" y2="305" stroke="silver"/>
<line x1="38" y1="300" x2="42" y2="300" stroke="silver"/>
<line x1="38" y1="295" x2="40" y2="295" stroke="silver"/>
<line x1="38" y1="290" x2="40" y2="290" stroke="silver"/>
<line x1="38" y1="285" x2="40" y2="285" stroke="silver"/>
<line x1="38" y1="280" x2="40" y2="280" stroke="silver"/>
<line x1="38" y1="275" x2="551" y2="275" stroke="silver"/>
<text x="10" y="279" font-family = "monospace" font-size="10px" font-weight="normal" fill="black">6000</text>
<line x1="38" y1="270" x2="40" y2="270" stroke="silver"/>
<line x1="38" y1="265" x2="40" y2="265" stroke="silver"/>
<line x1="38" y1="260" x2="40" y2="260" stroke="silver"/>
<line x1="38" y1="255" x2="40" y2="255" stroke="silver"/>
<line x1="38" y1="250" x2="42" y2="250" stroke="silver"/>
<line x1="38" y1="245" x2="40" y2="245" stroke="silver"/>
<line x1="38" y1="240" x2="40" y2="240" stroke="silver"/>
<line x1="38" y1="235" x2="40" y2="235" stroke="silver"/>
<line x1="38" y1="230" x2="40" y2="230" stroke="silver"/>
<line x1="38" y1="225" x2="551" y2="225" stroke="silver"/>
<text x="10" y="229" font-family = "monospace" font-size="10px" font-weight="normal" fill="black">7000</text>
<line x1="38" y1="220" x2="40" y2="220" stroke="silver"/>
<line x1="38" y1="215" x2="40" y2="215" stroke="silver"/>
<line x1="38" y1="210" x2="40" y2="210" stroke="silver"/>
<line x1="38" y1="205" x2="40" y2="205" stroke="silver"/>
<line x1="38" y1="200" x2="42" y2="200" stroke="silver"/>
<line x1="38" y1="195" x2="40" y2="195" stroke="silver"/>
<line x1="38" y1="190" x2="40" y2="190" stroke="silver"/>
<line x1="38" y1="185" x2="40" y2="185" stroke="silver"/>
<line x1="38" y1="180" x2="40" y2="180" stroke="silver"/>
<line x1="38" y1="175" x2="551" y2="175" stroke="silver"/>
<text x="10" y="179" font-family = "monospace" font-size="10px" font-weight="normal" fill="black">8000</text>
<line x1="38" y1="170" x2="40" y2="170" stroke="silver"/>
<line x1="38" y1="165" x2="40" y2="165" stroke="silver"/>
<line x1="38" y1="160" x2="40" y2="160" stroke="silver"/>
<line x1="38" y1="155" x2="40" y2="155" stroke="silver"/>
<line x1="38" y1="150" x2="42" y2="150" stroke="silver"/>
<line x1="38" y1="145" x2="40" y2="145" stroke="silver"/>
<line x1="38" y1="140" x2="40" y2="140" stroke="silver"/>
<line x1="38" y1="135" x2="40" y2="135" stroke="silver"/>
<line x1="38" y1="130" x2="40" y2="130" stroke="silver"/>
<line x1="38" y1="125" x2="551" y2="125" stroke="silver"/>
<text x="10" y="129" font-family = "monospace" font-size="10px" font-weight="normal" fill="black">9000</text>
<line x1="38" y1="120" x2="40" y2="120" stroke="silver"/>
<line x1="38" y1="115" x2="40" y2="115" stroke="silver"/>
<line x1="38" y1="110" x2="40" y2="110" stroke="silver"/>
<line x1="38" y1="105" x2="40" y2="105" stroke="silver"/>
<line x1="38" y1="100" x2="42" y2="100" stroke="silver"/>
<line x1="38" y1="95" x2="40" y2="95" stroke="silver"/>
<line x1="38" y1="90" x2="40" y2="90" stroke="silver"/>
<line x1="38" y1="85" x2="40" y2="85" stroke="silver"/>
<line x1="38" y1="80" x2="40" y2="80" stroke="silver"/>
<line x1="38" y1="75" x2="551" y2="75" stroke="silver"/>
<text x="5" y="79" font-family = "monospace" font-size="10px" font-weight="normal" fill="black">10000</text>
<line x1="38" y1="70" x2="40" y2="70" stroke="silver"/>
<line x1="38" y1="65" x2="40" y2="65" stroke="silver"/>
<line x1="38" y1="60" x2="40" y2="60" stroke="silver"/>
<line x1="38" y1="55" x2="40" y2="55" stroke="silver"/>
<line x1="38" y1="50" x2="42" y2="50" stroke="silver"/>
<line x1="38" y1="45" x2="40" y2="45" stroke="silver"/>
<line x1="38" y1="40" x2="40" y2="40" stroke="silver"/>
<line x1="38" y1="35" x2="40" y2="35" stroke="silver"/>
<line x1="38" y1="30" x2="40" y2="30" stroke="silver"/>
<text x="5" y="28" font-family = "monospace" font-size="10px" font-weight="normal" fill="black">11000</text>
<rect x="47" y="536" width="5" height="39" fill="cadetblue"/>
<rect x="47" y="528" width="4" height="8" fill="cadetblue"/>
<rect x="47" y="521" width="3" height="7" fill="cadetblue"/>
<rect x="57" y="507" width="5" height="68" fill="cadetblue"/>
<rect x="57" y="489" width="4" height="18" fill="cadetblue"/>
<rect x="57" y="473" width="3" height="16" fill="cadetblue"/>
<rect x="67" y="464" width="5" height="111" fill="cadetblue"/>
<rect x="67" y="437" width="4" height="27" fill="cadetblue"/>
<rect x="67" y="397" width="3" height="40" fill="cadetblue"/>
<rect x="77" y="453" width="5" height="122" fill="cadetblue"/>
<rect x="77" y="445" width="4" height="8" fill="cadetblue"/>
<rect x="77" y="438" width="3" height="7" fill="cadetblue"/>
<rect x="87" y="430" width="5" height="145" fill="cadetblue"/>
<rect x="87" y="417" width="4" height="13" fill="cadetblue"/>
<rect x="87" y="407" width="3" height="10" fill="cadetblue"/>
<rect x="97" y="399" width="5" height="176" fill="cadetblue"/>
<rect x="97" y="388" width="4" height="11" fill="cadetblue"/>
<rect x="97" y="377" width="3" height="11" fill="cadetblue"/>
<rect x="107" y="358" width="5" height="217" fill="cadetblue"/>
<rect x="107" y="330" width="4" height="28" fill="cadetblue"/>
<rect x="107" y="312" width="3" height="18" fill="cadetblue"/>
<rect x="117" y="331" width="5" height="244" fill="cadetblue"/>
<rect x="117" y="309" width="4" height="22" fill="cadetblue"/>
<rect x="117" y="295" width="3" height="14" fill="cadetblue"/>
<rect x="127" y="280" width="5" height="295" fill="cadetblue"/>
<rect x="127" y="250" width="4" height="30" fill="cadetblue"/>
<rect x="127" y="227" width="3" height="23" fill="cadetblue"/>
<rect x="137" y="243" width="5" height="332" fill="cadetblue"/>
<rect x="137" y="220" width="4" height="23" fill="cadetblue"/>
<rect x="137" y="197" width="3" height="23" fill="cadetblue"/>
<rect x="147" y="247" width="5" height="328" fill="cadetblue"/>
<rect x="147" y="221" width="4" height="26" fill="cadetblue"/>
<rect x="147" y="202" width="3" height="19" fill="cadetblue"/>
<rect x="157" y="146" width="5" height="429" fill="cadetblue"/>
<rect x="157" y="127" width="4" height="19" fill="cadetblue"/>
<rect x="157" y="107" width="3" height="20" fill="cadetblue"/>
<text x="89" y="585" font-family = "monospace" font-size="10px" font-weight="normal" fill="black">1..12</text>
<rect x="172" y="537" width="5" height="38" fill="brown"/>
<rect x="172" y="533" width="4" height="4" fill="brown"/>
<rect x="172" y="529" width="3" height="4" fill="brown"/>
<rect x="182" y="513" width="5" height="62" fill="brown"/>
<rect x="182" y="510" width="4" height="3" fill="brown"/>
<rect x="182" y="507" width="3" height="3" fill="brown"/>
<rect x="192" y="483" width="5" height="92" fill="brown"/>
<rect x="192" y="472" width="4" height="11" fill="brown"/>
<rect x="192" y="461" width="3" height="11" fill="brown"/>
<rect x="202" y="452" width="5" height="123" fill="brown"/>
<rect x="202" y="444" width="4" height="8" fill="brown"/>
<rect x="202" y="435" width="3" height="9" fill="brown"/>
<rect x="212" y="421" width="5" height="154" fill="brown"/>
<rect x="212" y="404" width="4" height="17" fill="brown"/>
<rect x="212" y="389" width="3" height="15" fill="brown"/>
<rect x="222" y="399" width="5" height="176" fill="brown"/>
<rect x="222" y="381" width="4" height="18" fill="brown"/>
<rect x="222" y="369" width="3" height="12" fill="brown"/>
<rect x="232" y="357" width="5" height="218" fill="brown"/>
<rect x="232" y="342" width="4" height="15" fill="brown"/>
<rect x="232" y="331" width="3" height="11" fill="brown"/>
<rect x="242" y="333" width="5" height="242" fill="brown"/>
<rect x="242" y="304" width="4" height="29" fill="brown"/>
<rect x="242" y="276" width="3" height="28" fill="brown"/>
<rect x="252" y="278" width="5" height="297" fill="brown"/>
<rect x="252" y="257" width="4" height="21" fill="brown"/>
<rect x="252" y="240" width="3" height="17" fill="brown"/>
<rect x="262" y="241" width="5" height="334" fill="brown"/>
<rect x="262" y="205" width="4" height="36" fill="brown"/>
<rect x="262" y="180" width="3" height="25" fill="brown"/>
<rect x="272" y="220" width="5" height="355" fill="brown"/>
<rect x="272" y="199" width="4" height="21" fill="brown"/>
<rect x="272" y="181" width="3" height="18" fill="brown"/>
<rect x="282" y="149" width="5" height="426" fill="brown"/>
<rect x="282" y="111" width="4" height="38" fill="brown"/>
<rect x="282" y="71" width="3" height="40" fill="brown"/>
<text x="214" y="585" font-family = "monospace" font-size="10px" font-weight="normal" fill="black">1..12</text>
<rect x="297" y="537" width="5" height="38" fill="darkorchid"/>
<rect x="297" y="533" width="4" height="4" fill="darkorchid"/>
<rect x="297" y="529" width="3" height="4" fill="darkorchid"/>
<rect x="307" y="512" width="5" height="63" fill="darkorchid"/>
<rect x="307" y="494" width="4" height="18" fill="darkorchid"/>
<rect x="307" y="481" width="3" height="13" fill="darkorchid"/>
<rect x="317" y="482" width="5" height="93" fill="darkorchid"/>
<rect x="317" y="472" width="4" height="10" fill="darkorchid"/>
<rect x="317" y="465" width="3" height="7" fill="darkorchid"/>
<rect x="327" y="454" width="5" height="121" fill="darkorchid"/>
<rect x="327" y="445" width="4" height="9" fill="darkorchid"/>
<rect x="327" y="437" width="3" height="8" fill="darkorchid"/>
<rect x="337" y="429" width="5" height="146" fill="darkorchid"/>
<rect x="337" y="421" width="4" height="8" fill="darkorchid"/>
<rect x="337" y="415" width="3" height="6" fill="darkorchid"/>
<rect x="347" y="396" width="5" height="179" fill="darkorchid"/>
<rect x="347" y="373" width="4" height="23" fill="darkorchid"/>
<rect x="347" y="346" width="3" height="27" fill="darkorchid"/>
<rect x="357" y="368" width="5" height="207" fill="darkorchid"/>
<rect x="357" y="349" width="4" height="19" fill="darkorchid"/>
<rect x="357" y="334" width="3" height="15" fill="darkorchid"/>
<rect x="367" y="313" width="5" height="262" fill="darkorchid"/>
<rect x="367" y="290" width="4" height="23" fill="darkorchid"/>
<rect x="367" y="271" width="3" height="19" fill="darkorchid"/>
<rect x="377" y="274" width="5" height="301" fill="darkorchid"/>
<rect x="377" y="242" width="4" height="32" fill="darkorchid"/>
<rect x="377" y="211" width="3" height="31" fill="darkorchid"/>
<rect x="387" y="237" width="5" height="338" fill="darkorchid"/>
<rect x="387" y="198" width="4" height="39" fill="darkorchid"/>
<rect x="387" y="175" width="3" height="23" fill="darkorchid"/>
<rect x="397" y="230" width="5" height="345" fill="darkorchid"/>
<rect x="397" y="182" width="4" height="48" fill="darkorchid"/>
<rect x="397" y="155" width="3" height="27" fill="darkorchid"/>
<rect x="407" y="160" width="5" height="415" fill="darkorchid"/>
<rect x="407" y="123" width="4" height="37" fill="darkorchid"/>
<rect x="407" y="104" width="3" height="19" fill="darkorchid"/>
<text x="339" y="585" font-family = "monospace" font-size="10px" font-weight="normal" fill="black">1..12</text>
<rect x="422" y="575" width="5" height="0" fill="red"/>
<rect x="422" y="575" width="4" height="0" fill="red"/>
<rect x="422" y="575" width="3" height="0" fill="red"/>
<rect x="432" y="575" width="5" height="0" fill="red"/>
<rect x="432" y="575" width="4" height="0" fill="red"/>
<rect x="432" y="575" width="3" height="0" fill="red"/>
<rect x="442" y="575" width="5" height="0" fill="red"/>
<rect x="442" y="575" width="4" height="0" fill="red"/>
<rect x="442" y="575" width="3" height="0" fill="red"/>
<rect x="452" y="575" width="5" height="0" fill="red"/>
<rect x="452" y="575" width="4" height="0" fill="red"/>
<rect x="452" y="575" width="3" height="0" fill="red"/>
<rect x="462" y="575" width="5" height="0" fill="red"/>
<rect x="462" y="575" width="4" height="0" fill="red"/>
<rect x="462" y="575" width="3" height="0" fill="red"/>
<rect x="472" y="575" width="5" height="0" fill="red"/>
<rect x="472" y="575" width="4" height="0" fill="red"/>
<rect x="472" y="575" width="3" height="0" fill="red"/>
<rect x="482" y="575" width="5" height="0" fill="red"/>
<rect x="482" y="575" width="4" height="0" fill="red"/>
<rect x="482" y="575" width="3" height="0" fill="red"/>
<rect x="492" y="575" width="5" height="0" fill="red"/>
<rect x="492" y="575" width="4" height="0" fill="red"/>
<rect x="492" y="575" width="3" height="0" fill="red"/>
<rect x="502" y="575" width="5" height="0" fill="red"/>
<rect x="502" y="575" width="4" height="0" fill="red"/>
<rect x="502" y="575" width="3" height="0" fill="red"/>
<rect x="512" y="575" width="5" height="0" fill="red"/>
<rect x="512" y="575" width="4" height="0" fill="red"/>
<rect x="512" y="575" width="3" height="0" fill="red"/>
<rect x="522" y="575" width="5" height="0" fill="red"/>
<rect x="522" y="575" width="4" height="0" fill="red"/>
<rect x="522" y="575" width="3" height="0" fill="red"/>
<rect x="532" y="575" width="5" height="0" fill="red"/>
<rect x="532" y="575" width="4" height="0" fill="red"/>
<rect x="532" y="575" width="3" height="0" fill="red"/>
<text x="464" y="585" font-family = "monospace" font-size="10px" font-weight="normal" fill="black">1..12</text>
<rect x="37" y="590" width="10" height="8" fill="cadetblue"/>
<text x="50" y="598" font-family = "monospace" font-size="10px" font-weight="normal" fill="black">integralThreadLock</text>
<rect x="159" y="590" width="10" height="8" fill="brown"/>
<text x="172" y="598" font-family = "monospace" font-size="10px" font-weight="normal" fill="black">integralThreadStNoLock</text>
<rect x="303" y="590" width="10" height="8" fill="darkorchid"/>
<text x="316" y="598" font-family = "monospace" font-size="10px" font-weight="normal" fill="black">integralThreadStLock</text>
<rect x="436" y="590" width="10" height="8" fill="red"/>
<text x="449" y="598" font-family = "monospace" font-size="10px" font-weight="normal" fill="black">integralOpenMP</text>
</svg>